<svg xmlns="http://www.w3.org/2000/svg" viewBox="0 0 49 49"><defs><style>.a{fill:#b20202;}</style></defs><g transform="translate(0 -0.001)"><g transform="translate(0 0.001)"><path class="a" d="M46.341,21.082H27.919V2.66A3.3,3.3,0,0,0,24.5,0,3.3,3.3,0,0,0,21.081,2.66V21.083H2.659A3.3,3.3,0,0,0,0,24.5,3.3,3.3,0,0,0,2.659,27.92H21.082V46.342A3.3,3.3,0,0,0,24.5,49a3.3,3.3,0,0,0,3.419-2.659V27.92H46.341A3.3,3.3,0,0,0,49,24.5,3.3,3.3,0,0,0,46.341,21.082Z" transform="translate(0 -0.001)"/></g></g></svg>