<svg xmlns="http://www.w3.org/2000/svg" viewBox="0 0 199.139 175.911"><defs><style>.a{fill:#275e96;}</style></defs><g transform="translate(-0.001 -20.566)"><g transform="translate(0.001 20.566)"><path class="a" d="M190.443,21.914c-8.986-4.839-19.009,4.493-24.885,10.023C152.08,45.07,140.674,60.277,127.886,74.1c-14.17,15.207-27.3,30.415-41.82,45.277-8.295,8.295-17.281,17.281-22.811,27.65C50.812,134.932,40.1,121.8,26.273,111.084,16.25,103.481-.34,97.951.006,116.269.7,140.117,21.78,165.693,37.333,181.937c6.567,6.912,15.207,14.17,25.23,14.516,12.1.691,24.539-13.825,31.8-21.774,12.789-13.825,23.157-29.378,34.908-43.548,15.207-18.664,30.76-36.982,45.622-55.991C184.222,63.388,213.6,34.355,190.443,21.914ZM15.213,114.886a2.616,2.616,0,0,0-1.382.345,16.82,16.82,0,0,1-3.8-1.382h0Q11.584,112.812,15.213,114.886Z" transform="translate(-0.001 -20.566)"/></g></g></svg>