<svg xmlns="http://www.w3.org/2000/svg" viewBox="0 0 25.098 34.224"><defs><style>.a{fill:#b20202;fill-rule:evenodd;}</style></defs><g transform="translate(-35.797)"><g transform="translate(35.797)"><path class="a" d="M39.28,31.9a3.108,3.108,0,0,0,3.134,2.323H54.278A3.108,3.108,0,0,0,57.412,31.9L59.754,9.127H36.938ZM52.909,12.549a1.141,1.141,0,0,1,2.282,0L54.05,29.661a1.141,1.141,0,1,1-2.282,0Zm-5.7,0a1.141,1.141,0,0,1,2.282,0V29.661a1.141,1.141,0,1,1-2.282,0V12.549Zm-4.563-1.141a1.141,1.141,0,0,1,1.141,1.141l1.141,17.112a1.141,1.141,0,0,1-2.282,0L41.5,12.549A1.141,1.141,0,0,1,42.642,11.408ZM59.069,4.565H54.05V2.282C54.05.551,53.49,0,51.768,0H44.923a2,2,0,0,0-2.282,2.282V4.565H37.622A1.77,1.77,0,0,0,35.8,6.277a1.77,1.77,0,0,0,1.825,1.712H59.069a1.77,1.77,0,0,0,1.825-1.712A1.771,1.771,0,0,0,59.069,4.565Zm-7.3,0H44.924V2.282h6.845V4.565Z" transform="translate(-35.797)"/></g></g></svg>